<svg id="Layer_1" data-name="Layer 1" xmlns="http://www.w3.org/2000/svg" viewBox="0 0 360 100"><defs><style>.cls-1{fill:#a3e635;}.cls-2{fill:#e68229;}</style></defs><path class="cls-1" d="M40.53,46.68a23.28,23.28,0,0,0-1.67-8.88c-.15-.37-.34-.72-.51-1.08a20.33,20.33,0,0,0-4.2-6,21.71,21.71,0,0,0-7.31-4.64,25.73,25.73,0,0,0-9.49-1.68H0V69H17.35c.26,0,.5,0,.75,0a25.44,25.44,0,0,0,8.74-1.63,21.28,21.28,0,0,0,7.31-4.65,20.73,20.73,0,0,0,4.71-7.06A23.41,23.41,0,0,0,40.53,46.68Zm-10.61,0a19.28,19.28,0,0,1-.86,6,12.82,12.82,0,0,1-2.46,4.51A10.8,10.8,0,0,1,22.66,60a13.19,13.19,0,0,1-4.44,1c-.29,0-.57,0-.87,0H10.42V32.38h6.93a13.48,13.48,0,0,1,5.31,1,10.8,10.8,0,0,1,3.94,2.84,12.82,12.82,0,0,1,2.46,4.51,16.55,16.55,0,0,1,.61,2.63A20.84,20.84,0,0,1,29.92,46.68Z"/><path class="cls-1" d="M67.21,32l-2.95-7.58H53.65l-1.83,4.73L36.36,69h8.1a3.43,3.43,0,0,0,2.17-.69,4.07,4.07,0,0,0,.63-.61,3.16,3.16,0,0,0,.57-.93L50.46,59h17l2.64,7.77a3.25,3.25,0,0,0,1.21,1.61,3.76,3.76,0,0,0,2.22.62h8l-1-2.56ZM60,37l0,0q.52,1.58.93,2.73l4.11,12.2H52.86L57,39.81c.06-.16.12-.35.19-.52.25-.66.51-1.39.79-2.24.34-1.06.68-2.21,1-3.45C59.3,34.81,59.65,35.93,60,37Z"/><path class="cls-1" d="M108.18,51.61a9.7,9.7,0,0,0-2-1.29,14.67,14.67,0,0,0,3.85-2.11,13,13,0,0,0,2.82-2.92,12.12,12.12,0,0,0,1.73-3.56,14.55,14.55,0,0,0-.39-9.35,10.46,10.46,0,0,0-3.15-4.19,15.51,15.51,0,0,0-5.58-2.77,30,30,0,0,0-8.26-1H82.72V69H93.08V52.49h2.64a3.91,3.91,0,0,1,1.85.37,3.1,3.1,0,0,1,1.15,1.22L106.14,67a4,4,0,0,0,3.74,2h9.38l-9.5-15.5A7.78,7.78,0,0,0,108.18,51.61ZM93.08,32.16h4.17q4,0,5.93,1.65a5.73,5.73,0,0,1,1.92,4.59,8.31,8.31,0,0,1-.43,2.73,5.7,5.7,0,0,1-1.38,2.22,6.36,6.36,0,0,1-2.44,1.48,10.58,10.58,0,0,1-3.6.54H93.08Z"/><polygon class="cls-1" points="152.87 24.43 117.36 24.43 117.36 32.62 129.93 32.62 129.93 68.97 140.3 68.97 140.3 32.62 152.87 32.62 152.87 24.43"/><path class="cls-1" d="M191.8,30.51a21.79,21.79,0,0,0-7.31-4.81A24.57,24.57,0,0,0,175,23.94a25.07,25.07,0,0,0-9.5,1.74,21.75,21.75,0,0,0-7.34,4.8A21,21,0,0,0,155,34.54l-.13.23a21.58,21.58,0,0,0-1.45,2.93,24.87,24.87,0,0,0,0,18,21.32,21.32,0,0,0,4.72,7.23,21.65,21.65,0,0,0,7.34,4.82,26.78,26.78,0,0,0,19,0,21.33,21.33,0,0,0,12-12,24.92,24.92,0,0,0,0-17.94A21.3,21.3,0,0,0,191.8,30.51ZM175,60.9a14.06,14.06,0,0,1-5.35-1,10.47,10.47,0,0,1-4-2.8,12.6,12.6,0,0,1-2.47-4.48,19.35,19.35,0,0,1-.86-6,19.23,19.23,0,0,1,.86-5.94,12.52,12.52,0,0,1,2.47-4.48,10.49,10.49,0,0,1,4-2.81,13.68,13.68,0,0,1,5.35-1,13.48,13.48,0,0,1,5.31,1,10.62,10.62,0,0,1,3.94,2.81,12.5,12.5,0,0,1,2.46,4.48,18.93,18.93,0,0,1,.86,5.94,19.06,19.06,0,0,1-.86,6,12.59,12.59,0,0,1-2.46,4.48,10.59,10.59,0,0,1-3.94,2.8A13.85,13.85,0,0,1,175,60.9Z"/><polygon class="cls-1" points="212.28 24.43 201.92 24.43 201.92 68.97 228.84 68.97 228.84 60.72 212.28 60.72 212.28 24.43"/><path class="cls-1" d="M267.78,30.51a21.83,21.83,0,0,0-7.32-4.81A24.55,24.55,0,0,0,251,23.94a25.08,25.08,0,0,0-9.51,1.74,21.75,21.75,0,0,0-7.34,4.8,21.18,21.18,0,0,0-4.72,7.22,23.71,23.71,0,0,0-1.67,9,22.67,22.67,0,0,0,3.1,11.89l.16.26a20.61,20.61,0,0,0,3.13,4.07,21.63,21.63,0,0,0,7.19,4.75l3.9-1,.29-.07a3.79,3.79,0,0,1,2.15.13l1.43.54,5.36,2a23.34,23.34,0,0,0,6-1.51,21.25,21.25,0,0,0,12-12,24.92,24.92,0,0,0,0-17.94A21.43,21.43,0,0,0,267.78,30.51ZM251,60.9a14,14,0,0,1-5.35-1,10.43,10.43,0,0,1-4-2.8,12.6,12.6,0,0,1-2.47-4.48,19.35,19.35,0,0,1-.86-6,19.23,19.23,0,0,1,.86-5.94,12.52,12.52,0,0,1,2.47-4.48,10.45,10.45,0,0,1,4-2.81,13.61,13.61,0,0,1,5.35-1,13.43,13.43,0,0,1,5.3,1,10.54,10.54,0,0,1,3.94,2.81,12.52,12.52,0,0,1,2.47,4.48,19.23,19.23,0,0,1,.86,5.94,19.35,19.35,0,0,1-.86,6,12.6,12.6,0,0,1-2.47,4.48,10.51,10.51,0,0,1-3.94,2.8A13.8,13.8,0,0,1,251,60.9Z"/><path class="cls-1" d="M290.57,36.38a11.25,11.25,0,0,1,4-2.89,12.93,12.93,0,0,1,5.24-1,23.78,23.78,0,0,1,2.82.15,15,15,0,0,1,2.4.49,13.79,13.79,0,0,1,2.22.87c.73.36,1.5.78,2.31,1.27a3.59,3.59,0,0,0,1.9.61,2.4,2.4,0,0,0,1.31-.37,3.38,3.38,0,0,0,1-1l3-4.56a20.36,20.36,0,0,0-3.07-2.39,20.84,20.84,0,0,0-3.78-1.89,25.46,25.46,0,0,0-4.52-1.25,28.26,28.26,0,0,0-5.25-.46,27,27,0,0,0-9.76,1.68,21.44,21.44,0,0,0-7.45,4.71,20.35,20.35,0,0,0-4.74,7.2,24.66,24.66,0,0,0-1.65,9.15,23.3,23.3,0,0,0,1.73,9.07A21.84,21.84,0,0,0,283.06,63a21,21,0,0,0,4.05,3.14l3-.84,6.82-1.92,12.34-3.47,5.06-1.43,2.16-.61V45.89H300.58v5.69a1.75,1.75,0,0,0,.55,1.31,2.14,2.14,0,0,0,1.54.52h4.41v6.76a18.74,18.74,0,0,1-3.13,1,17.3,17.3,0,0,1-3.8.37,13.33,13.33,0,0,1-5.19-1,11.45,11.45,0,0,1-4.11-2.89A13.47,13.47,0,0,1,288.13,53a18.77,18.77,0,0,1-1-6.3,18,18,0,0,1,.89-5.82A13.07,13.07,0,0,1,290.57,36.38Z"/><path class="cls-1" d="M340.62,61.25l-3.21.87a8.72,8.72,0,0,1-1.19,2.93,4.23,4.23,0,0,1-.61.76,2.82,2.82,0,0,1-1.24.7l-.92.23V69h10.36v-8.6l-2.16.59Z"/><path class="cls-1" d="M350.8,24.43a3.21,3.21,0,0,0-1.18.2,3.6,3.6,0,0,0-.95.51,5.6,5.6,0,0,0-.74.72,3.9,3.9,0,0,0-.5.8l-6.26,13c-.49,1-.95,2-1.38,2.84a27.76,27.76,0,0,0-1.1,2.63c-.33-.85-.7-1.72-1.13-2.59l-1.41-2.88-6.32-13a4.79,4.79,0,0,0-1.29-1.61,3.34,3.34,0,0,0-2.14-.62h-9.14L333.45,52V54.2a6.75,6.75,0,0,1,1,.74,1.86,1.86,0,0,0,.27.22,4.67,4.67,0,0,1,.85.77l.27.31,5.77-1.39,2.16-.52V52L360,24.43Z"/><path class="cls-2" d="M80.56,24.85V22.27h5.76C112,11.38,148.14,3,190,0c-54.76,3.89-95.74,12.39-124,23.08l3,7.8C72.57,28.81,76.4,26.79,80.56,24.85Z"/><path class="cls-2" d="M42.69,46.68v0L49,30.58q-4.76,2.43-8.77,5c.23.48.47,1,.68,1.45A25.56,25.56,0,0,1,42.69,46.68Z"/><path class="cls-2" d="M25,55.78A10.76,10.76,0,0,0,27,52a17.52,17.52,0,0,0,.76-5.34c0-.51,0-1-.06-1.49-4.52,4.49-7.48,9.06-8.92,13.6a10.45,10.45,0,0,0,3-.74A8.62,8.62,0,0,0,25,55.78Z"/><path class="cls-2" d="M224.15,86.53c-1.45.25-2.88.53-4.34.77-82.25,13.63-155.56,5.59-171.4-17.72A4.62,4.62,0,0,1,48,70a5.57,5.57,0,0,1-3.49,1.13H33.21l2.87-7.37c-.14.14-.27.3-.41.44a23.55,23.55,0,0,1-8,5.12,27.57,27.57,0,0,1-9,1.76C27,99.4,117.53,108.47,221,91.33c1.65-.27,3.27-.57,4.91-.85l-.89-.71A2.71,2.71,0,0,1,224.15,86.53Z"/><path class="cls-2" d="M360,53.17l-.05-.13-.54,0a4.65,4.65,0,0,0-.74.08l-2.26.44c-1.17.24-2.34.47-3.5.75l-5.16,1.25L346,56l-2.16.52-2.16.52-6,1.46-.14,0a1.4,1.4,0,0,1-.33,0,.54.54,0,0,1-.38-.15,1.15,1.15,0,0,1-.15-.2l-.06-.08a1.48,1.48,0,0,0-.08-.13l-.14-.21a2.39,2.39,0,0,0-.13-.21,1.56,1.56,0,0,0-.16-.2,1.89,1.89,0,0,0-.2-.2l-.2-.19-.08-.08-.11-.08,0,0a2,2,0,0,1-.23-.18l-.23-.19-.24-.18a1.24,1.24,0,0,0-.27-.17,1.26,1.26,0,0,0-.38-.15,1,1,0,0,0-.55,0l-.23.06c-3.14.81-6.26,1.67-9.49,2.54l0,0,.11.18v0h0l.12.21h0l.12.22a2.25,2.25,0,0,1,.12.21l.12.21h0a1.47,1.47,0,0,0,.1.22c0,.08.07.15.1.22s.07.15.11.22.07.14.1.22.05.15.08.22L323,61l.09.22c0,.08.06.15.08.23l0,0,.06.19a2,2,0,0,0,.07.23c0,.07,0,.15.07.23l.06.22c0,.08.05.15.07.23s0,.15.05.23,0,.16.05.23,0,.16.05.23a2,2,0,0,1,.05.24c0,.07,0,.15,0,.23l0,.24,0,.23,0,.24c0,.08,0,.16,0,.24s0,.16,0,.24,0,.16,0,.24,0,.16,0,.24,0,.16,0,.24v.24a2.08,2.08,0,0,1,0,.25v.49c0,.08,0,.16,0,.24v0l7.34-1.83,2.16-.55.37-.09a.78.78,0,0,0,.3-.18,1.32,1.32,0,0,0,.24-.3h0l.16-.29.15-.28.15-.28c0-.09.07-.19.11-.28s.08-.18.11-.27.08-.18.11-.27,0-.18,0-.26a2.38,2.38,0,0,0,.05-.26,2.38,2.38,0,0,0,.05-.26c0-.08,0-.16,0-.24s0-.16,0-.24,0-.16,0-.25a1,1,0,0,0,0-.24v0l.33-.1.25-.08,5.79-1.57,2.16-.6,2.16-.59,1.46-.41,2.44-.67q2.52-.72,5-1.5l4.2-1.29.17-.08c.26-.11.5-.25.75-.37Z"/><path class="cls-2" d="M323,64.91a1.94,1.94,0,0,0,0-.24h0l0-.24h0l0-.23h0l0-.23-.06-.23a1.55,1.55,0,0,0-.05-.23,1.55,1.55,0,0,0-.05-.23h0c0-.08,0-.16-.05-.24l-.06-.23h0l-.07-.22a2,2,0,0,0-.07-.23c0-.07,0-.15-.07-.23h0a1.87,1.87,0,0,0-.07-.22.83.83,0,0,0,0-.15l0-.08-.09-.22h0l-.09-.22h0L322,61h0l-.09-.22h0l-.09-.22h0a1.17,1.17,0,0,1-.05-.11l-.05-.1a1.47,1.47,0,0,0-.1-.22l-.09-.22-.1-.22-.1-.22a1.42,1.42,0,0,1-.08-.18s0,0,0,0a1.2,1.2,0,0,0-.21-.19.84.84,0,0,0-.56-.1,3.77,3.77,0,0,0-.43.1l-.7.2-.72.2-2.16.61-2.16.6L309,62.18,298.61,65.1l-5.12,1.44-3.6,1-1.64.46-1.44.41-1.16.33a7.34,7.34,0,0,0-1.79.64,3.18,3.18,0,0,0-.47.37,1.65,1.65,0,0,0-.24.22c-.11.14-.37.17-.56.23l-.63.16c-5.68,1.52-11.36,3-17,4.55a2.56,2.56,0,0,1-.86.08,3.52,3.52,0,0,1-.52-.12l-.21,0-.23-.09-.38-.14-.39-.15-.39-.14-.39-.15-.38-.14-.39-.15-.39-.14L260,73.6l-.38-.15-.39-.14-.39-.15-.39-.14-.39-.15-.38-.14-.39-.15-.39-.14-.39-.15-.38-.14-.39-.14-.39-.15-.39-.14-.39-.15-.37-.14h0l-.39-.15-.39-.14L253,71l-.38-.14-.39-.15-.39-.14-.39-.14-.38-.15-.39-.14-.39-.15-.39-.14-.39-.15-.38-.14-.39-.15-.11,0-.28-.1-.39-.15L247.6,69l-.39-.15-.3-.11-.12,0a1.44,1.44,0,0,0-.74,0l-.81.21c-1.35.34-2.69.7-4,1.05-2.81.73-5.62,1.45-8.42,2.19a1.55,1.55,0,0,0-.57.49l-.05.13c0,.09-.08.18-.11.27l-.12.28c0,.09-.07.18-.11.27l-.11.27c0,.1-.08.19-.11.28l-.12.27c0,.09-.07.18-.11.28l-.11.27c0,.09-.08.18-.11.27l-.12.28-.11.27-.11.27c0,.1-.08.19-.11.28l-.12.27-.11.28-.11.27-.11.27-.12.28-.11.27-.11.27-.11.28-.12.27c0,.09-.07.18-.11.28l-.11.27-.12.27-.11.28-.11.27c0,.09-.08.18-.11.27l-.12.28c0,.09-.07.18-.11.27s-.07.18-.11.28l-.11.27-.12.27c0,.09-.07.19-.11.28l-.11.27-.11.27-.12.28c0,.09-.07.18-.11.27s-.07.18-.11.28l-.11.27-.12.27c0,.09-.07.19-.11.28l-.11.27c0,.09-.08.18-.11.27l-.12.28-.11.27-.11.28c0,.09-.08.18-.11.27a2.44,2.44,0,0,0-.1.24l0,0-.11.28-.11.27c0,.09-.08.18-.11.27l-.12.28,0,.06c0,.08,0,.14-.07.21a.66.66,0,0,0,0,.24.69.69,0,0,0,.12.22,1.06,1.06,0,0,0,.15.14l.06,0,.23.18.23.19.23.18.23.19.24.18.23.19.23.18.23.19.23.18.23.19h0l.23.18.24.19.23.18.23.19.23.18.23.19.23.18a2.11,2.11,0,0,1,.23.19l.24.18.23.19.23.18.23.19.23.18a2.11,2.11,0,0,1,.23.19l.24.18.23.19.23.18.23.19.23.18.23.18.23.19.24.18a2.11,2.11,0,0,0,.23.19l.23.18.23.19.23.18L235,95l.23.18.24.19.23.18.23.19.23.18.23.19.23.18.23.19.24.18.23.19.23.18.23.19.23.18.23.19.24.18.23.19,0,0a2,2,0,0,0,.29.12,1.16,1.16,0,0,0,.63.06q6.48-1.64,12.94-3.35a2.05,2.05,0,0,0,.8-.42,2.33,2.33,0,0,0,.23-.19l.13-.15.27-.32.27-.31.27-.31.27-.32.27-.31.27-.32.27-.31.27-.32.27-.31.27-.31.27-.32.27-.31.27-.32.27-.31.27-.32.27-.31.26-.31.27-.32.27-.31.27-.32.27-.31.27-.32.27-.31.27-.31.27-.32.27-.31.27-.32.27-.31.27-.31.27-.32.27-.31.27-.32.27-.31.27-.32.26-.31.27-.31.27-.32.27-.31.27-.32.27-.31.27-.32.27-.31.12-.14a1.45,1.45,0,0,1,.23-.19,1.33,1.33,0,0,1,.5-.26Q275,78,284.05,75.7h.06a3.12,3.12,0,0,1,.61,0l.38,0,.75,0a2.69,2.69,0,0,0,.7,0l4.74-1.11,10.38-2.43,4.24-1L310.72,70l1.34-.31,10.23-2.4a1,1,0,0,0,.63-.4h0a.66.66,0,0,0,.1-.27,1.06,1.06,0,0,0,0-.19v-.06a2.08,2.08,0,0,0,0-.25,1.92,1.92,0,0,0,0-.24,2.09,2.09,0,0,0,0-.25h0v-.24a1.93,1.93,0,0,0,0-.24A2,2,0,0,0,323,64.91Z"/></svg>